<?xml version="1.0" standalone="no"?><!DOCTYPE svg PUBLIC "-//W3C//DTD SVG 1.1//EN" "http://www.w3.org/Graphics/SVG/1.1/DTD/svg11.dtd"><svg class="icon" width="64px" height="64.00px" viewBox="0 0 1024 1024" version="1.1" xmlns="http://www.w3.org/2000/svg"><path fill="#25d1dd" d="M298.676473 277.344632C300.30967 72.988338 482.017128 64.021106 512 64.021106c31.038924 0 211.972762 8.983605 213.323527 213.323526 0 0-0.601704 124.928291 0 127.994116-3.214205 127.793548-107.189278 170.821527-106.661252 213.323527-0.449231 106.529245 250.058173 130.759089 319.984778 191.990662 54.564733 59.161425 42.664705 149.325957 42.664706 149.325957H42.689265s-12.254092-90.164532 42.664705-149.325957c70.285786-61.231573 320.877101-85.003999 319.984778-191.990662 1.029446-42.475394-102.390995-85.974094-106.661251-213.323527 0.696872-3.306302 0.696872-116.841102-0.001024-127.994116z m243.353471 529.785062l60.474326-60.474326-90.505293-90.505294-90.505294 90.505294 60.474327 60.474326-33.966603 152.848177h127.994116l-33.965579-152.848177z" /></svg>